<svg width="12" height="12" viewBox="0 0 12 12" fill="none" xmlns="http://www.w3.org/2000/svg">
<path d="M10.9183 7.19442C10.6596 6.86158 10.044 6.96697 10.016 7.42736C10.0038 7.62864 10.0064 7.82185 10.0068 8.02322L10.0079 9.04766C10.0081 9.44769 10.0869 9.85596 9.60195 9.98112C9.58894 9.99368 9.57614 10.0065 9.56357 10.0194C9.59377 10.053 9.61791 10.0191 9.66208 10.0419C9.62749 10.0664 9.45048 10.0659 9.39746 10.066C7.89233 10.0679 6.38632 10.0665 4.88128 10.0667L3.28068 10.0671C3.01293 10.0671 2.73776 10.073 2.47048 10.0624C2.20729 10.052 1.98556 9.89835 2.0148 9.60737C1.98238 8.87597 2.03003 8.14028 1.98761 7.41113C1.95555 6.86019 1.04208 6.8592 1.01801 7.43289C0.996367 7.94905 1.00975 8.46341 1.00685 8.98077C1.00592 9.21687 1.00466 9.4569 1.02123 9.69176C1.06429 10.3021 1.61777 10.9081 2.23048 10.9777C2.65194 11.0255 3.12325 11.0091 3.55241 11.0089L5.74657 11.0084L8.24837 11.0087C8.70334 11.0088 9.17432 11.0205 9.62715 10.9924C10.0469 10.9664 10.4003 10.771 10.6731 10.4537C10.7862 10.3222 10.9303 10.0447 10.957 9.87089C10.9269 9.55578 10.9332 9.29121 10.9332 8.97669L10.9335 7.89107C10.9338 7.71315 10.9351 7.53729 10.9394 7.35939C10.9409 7.29735 10.9081 7.30484 10.9183 7.19442Z" fill="black"/>
<path d="M6.10452 1.02466C5.73368 0.971944 5.56843 1.22303 5.33098 1.46111L4.71471 2.07901L4.04323 2.74984C3.90112 2.89084 3.76038 3.02447 3.62662 3.17747C3.39834 3.43858 3.53545 3.92696 3.89122 3.98503C3.96683 3.99727 4.11834 4.00205 4.18683 3.95965C4.48315 3.77615 4.72416 3.46458 4.97553 3.22466C5.16015 3.04845 5.28688 2.89128 5.4954 2.74315C5.52943 3.84226 5.50749 5.04762 5.50734 6.15625L5.50612 7.00951C5.5053 7.4234 5.41299 7.86673 5.90779 7.99804C5.91343 7.99859 5.91908 7.99901 5.92474 7.99933C6.10692 8.01059 6.34331 7.94428 6.42907 7.78129C6.52925 7.59088 6.5041 7.2341 6.50338 7.02389L6.50293 6.24101L6.50287 4.04782C6.5029 3.62753 6.49289 3.16153 6.51178 2.74585C6.79845 2.95435 7.1328 3.35796 7.40034 3.60524C7.51031 3.71377 7.61608 3.8305 7.7434 3.9194C7.90133 4.02968 8.1236 4.01759 8.28195 3.90919C8.39056 3.83516 8.46429 3.72004 8.48611 3.59043C8.5052 3.47842 8.48976 3.32809 8.42029 3.2357C8.30244 3.07894 8.14366 2.93205 8.0041 2.79256L7.3318 2.12104L6.68279 1.47086C6.52448 1.31246 6.32813 1.0619 6.10452 1.02466Z" fill="black"/>
<path d="M2.01434 9.60742C1.9851 9.8984 2.20683 10.052 2.47002 10.0624C2.73731 10.073 3.01247 10.0672 3.28022 10.0671L4.88083 10.0668C6.38587 10.0666 7.89188 10.068 9.397 10.066C9.45003 10.0659 9.62704 10.0664 9.66162 10.0419C9.61745 10.0191 9.59331 10.0531 9.56311 10.0195C9.57569 10.0065 9.58848 9.99373 9.60149 9.98117C9.38542 10.0115 8.91998 9.99811 8.6845 9.99805L7.00993 9.99801L4.04349 9.99761C3.54828 9.99757 3.05286 10.0012 2.55774 9.99633C2.28018 9.99359 2.09267 9.88666 2.01434 9.60742Z" fill="black" fill-opacity="0.956863"/>
<path d="M10.9183 7.19434C10.9081 7.30475 10.9409 7.29726 10.9394 7.3593C10.9351 7.5372 10.9338 7.71307 10.9335 7.89098L10.9332 8.97661C10.9333 9.29112 10.9269 9.55569 10.957 9.8708C11.0155 9.65168 11.004 9.31546 11.004 9.08466L11.0046 8.339C11.0049 8.06166 11.0447 7.40967 10.9183 7.19434Z" fill="black" fill-opacity="0.964706"/>
</svg>
